<svg width="42" height="37" viewBox="0 0 42 37" fill="none" xmlns="http://www.w3.org/2000/svg">
<rect width="41.2134" height="36.0617" transform="translate(0.0643768 0.288086)" fill="white"/>
<path d="M29.2572 3.29297H12.085C7.34296 3.29297 3.49883 6.65659 3.49883 10.8058V25.8316C3.49883 29.9808 7.34296 33.3444 12.085 33.3444H29.2572C33.9992 33.3444 37.8433 29.9808 37.8433 25.8316V10.8058C37.8433 6.65659 33.9992 3.29297 29.2572 3.29297Z" stroke="black" stroke-width="2.57584" stroke-linecap="round" stroke-linejoin="round"/>
<path d="M27.54 17.3723C27.7519 18.6228 27.5078 19.9 26.8424 21.0221C26.1769 22.1442 25.1241 23.0542 23.8336 23.6225C22.543 24.1909 21.0805 24.3887 19.6541 24.1879C18.2277 23.9871 16.9099 23.3978 15.8883 22.5039C14.8667 21.6099 14.1932 20.4569 13.9637 19.2088C13.7342 17.9607 13.9603 16.681 14.6098 15.5518C15.2594 14.4226 16.2993 13.5013 17.5818 12.9191C18.8642 12.3368 20.3238 12.1232 21.7529 12.3087C23.2107 12.4978 24.5603 13.0922 25.6024 14.004C26.6445 14.9159 27.3238 16.0968 27.54 17.3723Z" stroke="black" stroke-width="2.57584" stroke-linecap="round" stroke-linejoin="round"/>
<path d="M30.1158 10.0547H30.1318" stroke="black" stroke-width="2.57584" stroke-linecap="round" stroke-linejoin="round"/>
</svg>
