<svg width="38" height="37" viewBox="0 0 38 37" fill="none" xmlns="http://www.w3.org/2000/svg">
<g clip-path="url(#clip0_35_92)">
<rect width="37.3496" height="36.0617" transform="translate(0.108025 0.288086)" fill="white"/>
<path d="M35.9014 4.79563C34.4112 5.81058 32.7611 6.58686 31.0149 7.09456C30.0776 6.05405 28.832 5.31656 27.4465 4.98183C26.0609 4.64711 24.6024 4.73131 23.268 5.22304C21.9337 5.71477 20.788 6.5903 19.9858 7.73123C19.1836 8.87215 18.7637 10.2234 18.7829 11.6023V13.1048C16.048 13.1733 13.338 12.5877 10.8943 11.4001C8.4506 10.2125 6.34902 8.45985 4.77673 6.2982C4.77673 6.2982 -1.44821 19.8213 12.5579 25.8316C9.35289 27.9322 5.53486 28.9854 1.66426 28.8368C15.6704 36.3496 32.789 28.8368 32.789 11.5572C32.7875 11.1387 32.7459 10.7212 32.6645 10.3101C34.2528 8.79772 35.3736 6.88828 35.9014 4.79563Z" stroke="black" stroke-width="2.57584" stroke-linecap="round" stroke-linejoin="round"/>
</g>
<defs>
<clipPath id="clip0_35_92">
<rect width="37.3496" height="36.0617" fill="white" transform="translate(0.108025 0.288086)"/>
</clipPath>
</defs>
</svg>
